<?xml version="1.0" encoding="UTF-8" standalone="no"?>
<!-- Generator: Gravit.io -->
<svg xmlns="http://www.w3.org/2000/svg" xmlns:xlink="http://www.w3.org/1999/xlink" style="isolation:isolate" viewBox="496.269 481.841 584.689 290.263" width="584.689pt" height="290.263pt"><defs><clipPath id="_clipPath_qanfZc0b8aZJFF0MLcefuhcSEbJm9hTt"><rect x="496.269" y="481.841" width="584.689" height="290.263"/></clipPath></defs><g clip-path="url(#_clipPath_qanfZc0b8aZJFF0MLcefuhcSEbJm9hTt)"><g><path d=" M 655.621 580.315 L 644.657 586.217 L 632.912 564.26 L 643.876 558.387 C 650.79 554.684 658.514 552.746 666.383 552.717 C 671.474 552.717 676.508 553.498 681.368 555.003 C 687.096 556.767 692.563 559.255 697.626 562.437 C 703.817 566.314 709.573 570.769 714.838 575.802 C 721.463 582.109 727.596 588.878 733.208 596.111 C 736.593 600.421 740.469 604.355 744.722 607.856 C 748.627 611.038 752.88 613.786 757.422 616.014 C 765.927 620.179 775.271 622.378 784.76 622.378 C 795.926 622.349 806.861 619.369 816.495 613.757 C 821.557 610.806 826.215 607.19 830.352 603.054 C 834.807 598.541 838.654 593.507 841.836 588.039 L 848.085 577.278 L 869.608 589.804 L 863.359 600.537 C 859.107 607.856 853.958 614.596 847.998 620.584 C 842.328 626.283 835.964 631.201 829.021 635.251 C 815.598 643.091 800.323 647.228 784.789 647.257 C 771.481 647.257 758.376 644.19 746.429 638.347 C 740.209 635.28 734.337 631.52 728.956 627.122 C 723.286 622.465 718.107 617.2 713.595 611.414 C 708.734 605.165 703.412 599.293 697.684 593.825 C 693.634 589.949 689.179 586.506 684.434 583.527 C 681.194 581.501 677.694 579.91 674.049 578.782 C 671.561 578.001 668.957 577.625 666.354 577.596 C 662.622 577.625 658.919 578.551 655.621 580.315 Z " fill="rgb(104,178,70)"/><path d=" M 733.122 541.059 L 726.873 551.82 L 705.35 539.323 L 711.598 528.562 C 715.851 521.243 721 514.531 726.96 508.543 C 732.63 502.844 738.994 497.897 745.937 493.876 C 759.36 486.036 774.634 481.87 790.169 481.841 C 803.477 481.87 816.581 484.908 828.5 490.78 C 834.749 493.847 840.621 497.608 846.002 502.005 C 851.672 506.662 856.85 511.927 861.363 517.713 C 866.223 523.962 871.546 529.834 877.274 535.273 C 881.324 539.15 885.779 542.592 890.524 545.572 C 893.764 547.597 897.264 549.217 900.909 550.345 C 903.397 551.097 906.001 551.502 908.604 551.531 C 912.336 551.502 916.039 550.548 919.337 548.783 L 930.301 542.91 L 942.046 564.838 L 931.082 570.711 C 924.168 574.414 916.444 576.381 908.575 576.41 C 903.484 576.381 898.45 575.6 893.59 574.125 C 887.862 572.36 882.395 569.843 877.332 566.661 C 871.141 562.813 865.385 558.329 860.119 553.296 C 853.495 547.018 847.362 540.22 841.75 533.017 C 838.365 528.677 834.488 524.743 830.236 521.272 C 826.331 518.06 822.078 515.341 817.536 513.114 C 809.031 508.919 799.687 506.749 790.198 506.72 C 779.032 506.749 768.097 509.729 758.463 515.37 C 753.401 518.321 748.743 521.908 744.606 526.074 C 740.151 530.558 736.304 535.591 733.122 541.059 Z " fill="rgb(104,178,70)"/></g><g><path d=" M 782.66 751.108 L 782.66 751.108 L 782.66 751.108 Q 778.835 751.108 775.81 749.84 L 775.81 749.84 L 775.81 749.84 Q 772.785 748.572 769.804 745.28 L 769.804 745.28 L 769.004 745.28 L 769.004 745.28 Q 769.804 750.574 769.804 751.864 L 769.804 751.864 L 769.804 772.105 L 752.411 772.105 L 752.411 699.817 L 766.557 699.817 L 769.004 706.223 L 769.804 706.223 L 769.804 706.223 Q 774.653 698.927 783.194 698.927 L 783.194 698.927 L 783.194 698.927 Q 791.557 698.927 796.317 705.867 L 796.317 705.867 L 796.317 705.867 Q 801.077 712.807 801.077 724.906 L 801.077 724.906 L 801.077 724.906 Q 801.077 737.095 796.117 744.102 L 796.117 744.102 L 796.117 744.102 Q 791.157 751.108 782.66 751.108 Z  M 776.833 712.584 L 776.833 712.584 L 776.833 712.584 Q 773.007 712.584 771.472 715.32 L 771.472 715.32 L 771.472 715.32 Q 769.938 718.056 769.804 723.438 L 769.804 723.438 L 769.804 724.817 L 769.804 724.817 Q 769.804 731.312 771.539 734.204 L 771.539 734.204 L 771.539 734.204 Q 773.274 737.095 777.011 737.095 L 777.011 737.095 L 777.011 737.095 Q 780.347 737.095 781.86 734.226 L 781.86 734.226 L 781.86 734.226 Q 783.372 731.357 783.372 724.728 L 783.372 724.728 L 783.372 724.728 Q 783.372 718.234 781.86 715.409 L 781.86 715.409 L 781.86 715.409 Q 780.347 712.584 776.833 712.584 Z  M 835.33 751.108 L 835.33 751.108 L 835.33 751.108 Q 822.741 751.108 815.779 744.413 L 815.779 744.413 L 815.779 744.413 Q 808.817 737.718 808.817 725.351 L 808.817 725.351 L 808.817 725.351 Q 808.817 712.584 815.268 705.756 L 815.268 705.756 L 815.268 705.756 Q 821.718 698.927 833.684 698.927 L 833.684 698.927 L 833.684 698.927 Q 845.072 698.927 851.278 704.866 L 851.278 704.866 L 851.278 704.866 Q 857.483 710.805 857.483 721.97 L 857.483 721.97 L 857.483 729.711 L 826.389 729.711 L 826.389 729.711 Q 826.567 733.937 829.48 736.339 L 829.48 736.339 L 829.48 736.339 Q 832.394 738.741 837.421 738.741 L 837.421 738.741 L 837.421 738.741 Q 842.003 738.741 845.851 737.874 L 845.851 737.874 L 845.851 737.874 Q 849.699 737.006 854.192 734.915 L 854.192 734.915 L 854.192 747.416 L 854.192 747.416 Q 850.099 749.506 845.739 750.307 L 845.739 750.307 L 845.739 750.307 Q 841.38 751.108 835.33 751.108 Z  M 834.307 710.76 L 834.307 710.76 L 834.307 710.76 Q 831.237 710.76 829.169 712.695 L 829.169 712.695 L 829.169 712.695 Q 827.1 714.631 826.745 718.768 L 826.745 718.768 L 841.691 718.768 L 841.691 718.768 Q 841.602 715.12 839.623 712.94 L 839.623 712.94 L 839.623 712.94 Q 837.643 710.76 834.307 710.76 Z  M 916.336 750.218 L 903.214 750.218 L 901.034 743.946 L 900.011 743.946 L 900.011 743.946 Q 897.831 747.416 893.938 749.262 L 893.938 749.262 L 893.938 749.262 Q 890.046 751.108 884.797 751.108 L 884.797 751.108 L 884.797 751.108 Q 876.478 751.108 871.852 746.281 L 871.852 746.281 L 871.852 746.281 Q 867.226 741.455 867.226 732.647 L 867.226 732.647 L 867.226 699.817 L 884.619 699.817 L 884.619 727.353 L 884.619 727.353 Q 884.619 732.291 886.02 734.826 L 886.02 734.826 L 886.02 734.826 Q 887.422 737.362 890.624 737.362 L 890.624 737.362 L 890.624 737.362 Q 895.117 737.362 897.03 733.826 L 897.03 733.826 L 897.03 733.826 Q 898.943 730.289 898.943 721.881 L 898.943 721.881 L 898.943 699.817 L 916.336 699.817 L 916.336 750.218 L 916.336 750.218 Z  M 953.036 737.362 L 953.036 737.362 L 953.036 737.362 Q 956.551 737.362 961.444 735.627 L 961.444 735.627 L 961.444 748.305 L 961.444 748.305 Q 957.93 749.818 954.749 750.463 L 954.749 750.463 L 954.749 750.463 Q 951.568 751.108 947.298 751.108 L 947.298 751.108 L 947.298 751.108 Q 938.534 751.108 934.664 746.815 L 934.664 746.815 L 934.664 746.815 Q 930.794 742.522 930.794 733.625 L 930.794 733.625 L 930.794 712.851 L 924.7 712.851 L 924.7 705.778 L 932.44 700.306 L 936.933 689.719 L 948.321 689.719 L 948.321 699.817 L 960.688 699.817 L 960.688 712.851 L 948.321 712.851 L 948.321 732.469 L 948.321 732.469 Q 948.321 737.362 953.036 737.362 Z  M 994.585 751.108 L 994.585 751.108 L 994.585 751.108 Q 981.996 751.108 975.034 744.413 L 975.034 744.413 L 975.034 744.413 Q 968.072 737.718 968.072 725.351 L 968.072 725.351 L 968.072 725.351 Q 968.072 712.584 974.522 705.756 L 974.522 705.756 L 974.522 705.756 Q 980.973 698.927 992.939 698.927 L 992.939 698.927 L 992.939 698.927 Q 1004.327 698.927 1010.533 704.866 L 1010.533 704.866 L 1010.533 704.866 Q 1016.738 710.805 1016.738 721.97 L 1016.738 721.97 L 1016.738 729.711 L 985.643 729.711 L 985.643 729.711 Q 985.821 733.937 988.735 736.339 L 988.735 736.339 L 988.735 736.339 Q 991.649 738.741 996.676 738.741 L 996.676 738.741 L 996.676 738.741 Q 1001.258 738.741 1005.105 737.874 L 1005.105 737.874 L 1005.105 737.874 Q 1008.953 737.006 1013.446 734.915 L 1013.446 734.915 L 1013.446 747.416 L 1013.446 747.416 Q 1009.354 749.506 1004.994 750.307 L 1004.994 750.307 L 1004.994 750.307 Q 1000.635 751.108 994.585 751.108 Z  M 993.562 710.76 L 993.562 710.76 L 993.562 710.76 Q 990.492 710.76 988.424 712.695 L 988.424 712.695 L 988.424 712.695 Q 986.355 714.631 985.999 718.768 L 985.999 718.768 L 1000.946 718.768 L 1000.946 718.768 Q 1000.857 715.12 998.878 712.94 L 998.878 712.94 L 998.878 712.94 Q 996.898 710.76 993.562 710.76 Z " fill="rgb(119,119,119)"/><path d=" M 529.721 699.55 L 529.721 750.218 L 512.15 750.218 L 512.15 699.55 L 496.269 699.55 L 496.269 685.182 L 545.558 685.182 L 545.558 699.55 L 529.721 699.55 L 529.721 699.55 Z  M 578.165 751.108 L 578.165 751.108 L 578.165 751.108 Q 565.576 751.108 558.614 744.413 L 558.614 744.413 L 558.614 744.413 Q 551.652 737.718 551.652 725.351 L 551.652 725.351 L 551.652 725.351 Q 551.652 712.584 558.102 705.756 L 558.102 705.756 L 558.102 705.756 Q 564.553 698.927 576.519 698.927 L 576.519 698.927 L 576.519 698.927 Q 587.907 698.927 594.113 704.866 L 594.113 704.866 L 594.113 704.866 Q 600.318 710.805 600.318 721.97 L 600.318 721.97 L 600.318 729.711 L 569.223 729.711 L 569.223 729.711 Q 569.401 733.937 572.315 736.339 L 572.315 736.339 L 572.315 736.339 Q 575.229 738.741 580.256 738.741 L 580.256 738.741 L 580.256 738.741 Q 584.837 738.741 588.685 737.874 L 588.685 737.874 L 588.685 737.874 Q 592.533 737.006 597.026 734.915 L 597.026 734.915 L 597.026 747.416 L 597.026 747.416 Q 592.934 749.506 588.574 750.307 L 588.574 750.307 L 588.574 750.307 Q 584.215 751.108 578.165 751.108 Z  M 577.142 710.76 L 577.142 710.76 L 577.142 710.76 Q 574.072 710.76 572.004 712.695 L 572.004 712.695 L 572.004 712.695 Q 569.935 714.631 569.579 718.768 L 569.579 718.768 L 584.526 718.768 L 584.526 718.768 Q 584.437 715.12 582.458 712.94 L 582.458 712.94 L 582.458 712.94 Q 580.478 710.76 577.142 710.76 Z  M 640.577 698.927 L 640.577 698.927 L 640.577 698.927 Q 642.845 698.927 644.892 699.283 L 644.892 699.283 L 645.87 699.461 L 644.313 715.876 L 644.313 715.876 Q 642.178 715.342 638.397 715.342 L 638.397 715.342 L 638.397 715.342 Q 632.703 715.342 630.123 717.945 L 630.123 717.945 L 630.123 717.945 Q 627.543 720.547 627.543 725.44 L 627.543 725.44 L 627.543 750.218 L 610.149 750.218 L 610.149 699.817 L 623.094 699.817 L 625.808 707.869 L 626.653 707.869 L 626.653 707.869 Q 628.833 703.865 632.725 701.396 L 632.725 701.396 L 632.725 701.396 Q 636.618 698.927 640.577 698.927 Z  M 683.326 698.927 L 683.326 698.927 L 683.326 698.927 Q 685.595 698.927 687.641 699.283 L 687.641 699.283 L 688.62 699.461 L 687.063 715.876 L 687.063 715.876 Q 684.928 715.342 681.147 715.342 L 681.147 715.342 L 681.147 715.342 Q 675.453 715.342 672.872 717.945 L 672.872 717.945 L 672.872 717.945 Q 670.292 720.547 670.292 725.44 L 670.292 725.44 L 670.292 750.218 L 652.899 750.218 L 652.899 699.817 L 665.844 699.817 L 668.557 707.869 L 669.403 707.869 L 669.403 707.869 Q 671.582 703.865 675.475 701.396 L 675.475 701.396 L 675.475 701.396 Q 679.367 698.927 683.326 698.927 Z  M 740.578 750.218 L 728.523 750.218 L 725.186 743.545 L 724.83 743.545 L 724.83 743.545 Q 721.316 747.905 717.668 749.506 L 717.668 749.506 L 717.668 749.506 Q 714.021 751.108 708.238 751.108 L 708.238 751.108 L 708.238 751.108 Q 701.12 751.108 697.028 746.837 L 697.028 746.837 L 697.028 746.837 Q 692.935 742.567 692.935 734.826 L 692.935 734.826 L 692.935 734.826 Q 692.935 726.775 698.54 722.838 L 698.54 722.838 L 698.54 722.838 Q 704.145 718.901 714.777 718.412 L 714.777 718.412 L 723.184 718.145 L 723.184 717.433 L 723.184 717.433 Q 723.184 711.205 717.046 711.205 L 717.046 711.205 L 717.046 711.205 Q 711.53 711.205 703.033 714.942 L 703.033 714.942 L 698.006 703.465 L 698.006 703.465 Q 706.814 698.927 720.249 698.927 L 720.249 698.927 L 720.249 698.927 Q 729.946 698.927 735.262 703.732 L 735.262 703.732 L 735.262 703.732 Q 740.578 708.536 740.578 717.166 L 740.578 717.166 L 740.578 750.218 L 740.578 750.218 Z  M 715.622 738.83 L 715.622 738.83 L 715.622 738.83 Q 718.781 738.83 721.027 736.828 L 721.027 736.828 L 721.027 736.828 Q 723.273 734.826 723.273 731.624 L 723.273 731.624 L 723.273 727.709 L 719.27 727.887 L 719.27 727.887 Q 710.684 728.198 710.684 734.204 L 710.684 734.204 L 710.684 734.204 Q 710.684 738.83 715.622 738.83 Z " fill="rgb(102,170,51)"/><path d=" M 1045.121 750.614 L 1045.121 750.614 L 1045.121 750.614 Q 1033.651 750.614 1033.651 738.024 L 1033.651 738.024 L 1033.651 738.024 Q 1033.651 731.761 1036.771 728.455 L 1036.771 728.455 L 1036.771 728.455 Q 1039.891 725.148 1045.714 725.148 L 1045.714 725.148 L 1045.714 725.148 Q 1049.976 725.148 1053.36 726.818 L 1053.36 726.818 L 1051.383 732.003 L 1051.383 732.003 Q 1049.801 731.366 1048.438 730.959 L 1048.438 730.959 L 1048.438 730.959 Q 1047.076 730.553 1045.714 730.553 L 1045.714 730.553 L 1045.714 730.553 Q 1040.484 730.553 1040.484 737.98 L 1040.484 737.98 L 1040.484 737.98 Q 1040.484 745.187 1045.714 745.187 L 1045.714 745.187 L 1045.714 745.187 Q 1047.647 745.187 1049.295 744.67 L 1049.295 744.67 L 1049.295 744.67 Q 1050.943 744.154 1052.591 743.055 L 1052.591 743.055 L 1052.591 748.79 L 1052.591 748.79 Q 1050.965 749.823 1049.306 750.218 L 1049.306 750.218 L 1049.306 750.218 Q 1047.647 750.614 1045.121 750.614 Z  M 1080.958 734.156 L 1080.958 750.175 L 1074.256 750.175 L 1074.256 735.826 L 1074.256 735.826 Q 1074.256 730.509 1070.301 730.509 L 1070.301 730.509 L 1070.301 730.509 Q 1067.489 730.509 1066.236 732.421 L 1066.236 732.421 L 1066.236 732.421 Q 1064.984 734.332 1064.984 738.617 L 1064.984 738.617 L 1064.984 750.175 L 1058.282 750.175 L 1058.282 715.985 L 1064.984 715.985 L 1064.984 722.95 L 1064.984 722.95 Q 1064.984 723.763 1064.83 726.774 L 1064.83 726.774 L 1064.676 728.751 L 1065.028 728.751 L 1065.028 728.751 Q 1067.269 725.148 1072.147 725.148 L 1072.147 725.148 L 1072.147 725.148 Q 1076.475 725.148 1078.717 727.477 L 1078.717 727.477 L 1078.717 727.477 Q 1080.958 729.806 1080.958 734.156 L 1080.958 734.156 Z  M 1021.368 747.032 L 1021.368 747.032 L 1021.368 747.032 Q 1021.368 745.187 1022.357 744.242 L 1022.357 744.242 L 1022.357 744.242 Q 1023.346 743.297 1025.235 743.297 L 1025.235 743.297 L 1025.235 743.297 Q 1027.059 743.297 1028.059 744.264 L 1028.059 744.264 L 1028.059 744.264 Q 1029.059 745.231 1029.059 747.032 L 1029.059 747.032 L 1029.059 747.032 Q 1029.059 748.768 1028.048 749.768 L 1028.048 749.768 L 1028.048 749.768 Q 1027.037 750.768 1025.235 750.768 L 1025.235 750.768 L 1025.235 750.768 Q 1023.39 750.768 1022.379 749.79 L 1022.379 749.79 L 1022.379 749.79 Q 1021.368 748.812 1021.368 747.032 Z " fill="rgb(102,170,51)"/></g></g></svg>